<svg xmlns="http://www.w3.org/2000/svg" xmlns:xlink="http://www.w3.org/1999/xlink" width="500" zoomAndPan="magnify" viewBox="0 0 375 374.999991" height="500" preserveAspectRatio="xMidYMid meet" version="1.0"><defs><clipPath id="0970d81657"><path d="M 82 113.570312 L 293.390625 113.570312 L 293.390625 261.320312 L 82 261.320312 Z M 82 113.570312 " clip-rule="nonzero"/></clipPath></defs><g clip-path="url(#0970d81657)"><path fill="#ffffff" d="M 93.449219 113.941406 C 92.75 113.929688 92.0625 113.988281 91.375 114.117188 C 90.691406 114.246094 90.027344 114.4375 89.378906 114.699219 C 88.734375 114.957031 88.121094 115.277344 87.539062 115.660156 C 86.957031 116.042969 86.417969 116.476562 85.921875 116.964844 C 85.425781 117.453125 84.980469 117.988281 84.59375 118.566406 C 84.203125 119.140625 83.875 119.75 83.605469 120.394531 C 83.335938 121.035156 83.132812 121.699219 82.996094 122.382812 C 82.859375 123.0625 82.789062 123.753906 82.789062 124.449219 C 82.789062 125.144531 82.859375 125.835938 82.996094 126.519531 C 83.132812 127.199219 83.335938 127.863281 83.605469 128.503906 C 83.875 129.148438 84.203125 129.757812 84.59375 130.335938 C 84.980469 130.910156 85.425781 131.445312 85.921875 131.933594 C 86.417969 132.421875 86.957031 132.855469 87.539062 133.238281 C 88.121094 133.621094 88.734375 133.941406 89.378906 134.199219 C 90.027344 134.460938 90.691406 134.652344 91.375 134.78125 C 92.0625 134.910156 92.75 134.96875 93.449219 134.957031 L 282.597656 134.957031 C 283.296875 134.96875 283.984375 134.910156 284.671875 134.78125 C 285.355469 134.652344 286.019531 134.460938 286.667969 134.199219 C 287.3125 133.941406 287.925781 133.621094 288.507812 133.238281 C 289.089844 132.855469 289.628906 132.421875 290.125 131.933594 C 290.621094 131.445312 291.066406 130.910156 291.453125 130.335938 C 291.84375 129.757812 292.175781 129.148438 292.441406 128.503906 C 292.710938 127.863281 292.914062 127.199219 293.050781 126.519531 C 293.1875 125.835938 293.257812 125.144531 293.257812 124.449219 C 293.257812 123.753906 293.1875 123.0625 293.050781 122.382812 C 292.914062 121.699219 292.710938 121.035156 292.441406 120.394531 C 292.175781 119.75 291.84375 119.140625 291.453125 118.566406 C 291.066406 117.988281 290.621094 117.453125 290.125 116.964844 C 289.628906 116.476562 289.089844 116.042969 288.507812 115.660156 C 287.925781 115.277344 287.3125 114.957031 286.667969 114.699219 C 286.019531 114.4375 285.355469 114.246094 284.671875 114.117188 C 283.984375 113.988281 283.296875 113.929688 282.597656 113.941406 Z M 93.449219 176.992188 C 92.75 176.980469 92.0625 177.039062 91.375 177.167969 C 90.691406 177.296875 90.027344 177.488281 89.382812 177.75 C 88.734375 178.007812 88.121094 178.328125 87.539062 178.710938 C 86.957031 179.09375 86.417969 179.527344 85.921875 180.015625 C 85.425781 180.503906 84.980469 181.039062 84.59375 181.613281 C 84.203125 182.191406 83.875 182.800781 83.605469 183.445312 C 83.335938 184.085938 83.132812 184.75 82.996094 185.429688 C 82.859375 186.113281 82.789062 186.804688 82.789062 187.5 C 82.789062 188.195312 82.859375 188.886719 82.996094 189.570312 C 83.132812 190.25 83.335938 190.914062 83.605469 191.554688 C 83.875 192.199219 84.203125 192.808594 84.59375 193.386719 C 84.980469 193.960938 85.425781 194.496094 85.921875 194.984375 C 86.417969 195.472656 86.957031 195.90625 87.539062 196.289062 C 88.121094 196.671875 88.734375 196.992188 89.382812 197.25 C 90.027344 197.511719 90.691406 197.703125 91.375 197.832031 C 92.0625 197.960938 92.75 198.019531 93.449219 198.007812 L 282.597656 198.007812 C 283.296875 198.019531 283.984375 197.960938 284.671875 197.832031 C 285.355469 197.703125 286.019531 197.511719 286.667969 197.25 C 287.3125 196.992188 287.925781 196.671875 288.507812 196.289062 C 289.089844 195.90625 289.628906 195.472656 290.125 194.984375 C 290.621094 194.496094 291.066406 193.960938 291.453125 193.386719 C 291.84375 192.808594 292.175781 192.199219 292.441406 191.554688 C 292.710938 190.914062 292.914062 190.25 293.050781 189.570312 C 293.1875 188.886719 293.257812 188.195312 293.257812 187.5 C 293.257812 186.804688 293.1875 186.113281 293.050781 185.429688 C 292.914062 184.75 292.710938 184.085938 292.441406 183.445312 C 292.175781 182.800781 291.84375 182.191406 291.453125 181.613281 C 291.066406 181.039062 290.621094 180.503906 290.125 180.015625 C 289.628906 179.527344 289.089844 179.09375 288.507812 178.710938 C 287.925781 178.328125 287.3125 178.007812 286.667969 177.75 C 286.019531 177.488281 285.355469 177.296875 284.671875 177.167969 C 283.984375 177.039062 283.296875 176.980469 282.597656 176.992188 Z M 93.449219 240.042969 C 92.75 240.03125 92.0625 240.089844 91.375 240.21875 C 90.691406 240.34375 90.027344 240.539062 89.378906 240.796875 C 88.734375 241.058594 88.121094 241.378906 87.539062 241.761719 C 86.957031 242.140625 86.417969 242.578125 85.921875 243.066406 C 85.425781 243.554688 84.980469 244.089844 84.59375 244.664062 C 84.203125 245.242188 83.871094 245.851562 83.605469 246.496094 C 83.335938 247.136719 83.132812 247.800781 82.996094 248.480469 C 82.859375 249.164062 82.789062 249.855469 82.789062 250.550781 C 82.789062 251.246094 82.859375 251.9375 82.996094 252.617188 C 83.132812 253.300781 83.335938 253.964844 83.605469 254.605469 C 83.871094 255.25 84.203125 255.859375 84.59375 256.433594 C 84.980469 257.011719 85.425781 257.546875 85.921875 258.035156 C 86.417969 258.523438 86.957031 258.957031 87.539062 259.339844 C 88.121094 259.722656 88.734375 260.042969 89.378906 260.300781 C 90.027344 260.5625 90.691406 260.753906 91.375 260.882812 C 92.0625 261.007812 92.75 261.070312 93.449219 261.058594 L 282.597656 261.058594 C 283.296875 261.070312 283.984375 261.007812 284.671875 260.882812 C 285.355469 260.753906 286.019531 260.5625 286.667969 260.300781 C 287.3125 260.042969 287.925781 259.722656 288.507812 259.339844 C 289.089844 258.957031 289.628906 258.523438 290.125 258.035156 C 290.621094 257.546875 291.066406 257.011719 291.453125 256.433594 C 291.84375 255.859375 292.175781 255.25 292.441406 254.605469 C 292.710938 253.964844 292.914062 253.300781 293.050781 252.617188 C 293.1875 251.9375 293.257812 251.246094 293.257812 250.550781 C 293.257812 249.855469 293.1875 249.164062 293.050781 248.480469 C 292.914062 247.800781 292.710938 247.136719 292.441406 246.496094 C 292.175781 245.851562 291.84375 245.242188 291.453125 244.664062 C 291.066406 244.089844 290.621094 243.554688 290.125 243.066406 C 289.628906 242.578125 289.089844 242.140625 288.507812 241.761719 C 287.925781 241.378906 287.3125 241.058594 286.667969 240.796875 C 286.019531 240.539062 285.355469 240.34375 284.671875 240.21875 C 283.984375 240.089844 283.296875 240.03125 282.597656 240.042969 Z M 93.449219 240.042969 " fill-opacity="1" fill-rule="nonzero"/></g></svg>